<svg width="600" height="420" viewBox="0 0 600 420" fill="none" xmlns="http://www.w3.org/2000/svg">
  <g fill="#C83B2F" opacity="0.11">
    <path d="M443 174L0 82V20L443 174Z"/>
    <path d="M443 174L80 0H190L443 174Z"/>
    <path d="M443 174L310 0H385L443 174Z"/>
    <path d="M443 174L463 0H527L443 174Z"/>
    <path d="M443 174L600 34V117L443 174Z"/>
    <path d="M443 174L600 191V246L443 174Z"/>
    <path d="M443 174L600 330V397L443 174Z"/>
    <path d="M443 174L491 420H424L443 174Z"/>
    <path d="M443 174L326 420H244L443 174Z"/>
    <path d="M443 174L95 420H0V383L443 174Z"/>
    <path d="M443 174L0 303V242L443 174Z"/>
    <path d="M443 174L0 181V124L443 174Z"/>
  </g>
  <circle cx="443" cy="174" r="82" fill="#C83B2F"/>
  <g stroke="#263C44" stroke-width="3" opacity="0.17">
    <path d="M8 326C55 291 103 291 151 326C198 361 246 361 294 326C341 291 389 291 437 326C484 361 532 361 592 316"/>
    <path d="M8 356C55 321 103 321 151 356C198 391 246 391 294 356C341 321 389 321 437 356C484 391 532 391 592 346"/>
    <path d="M8 386C55 351 103 351 151 386C198 421 246 421 294 386C341 351 389 351 437 386C484 421 532 421 592 376"/>
  </g>
</svg>
